<svg version="1.2" xmlns="http://www.w3.org/2000/svg" viewBox="0 0 972 110" width="972" height="110">
	<title>New Project</title>
	<style>
		.s0 { fill: #5f2eea } 
	</style>
	<path id="KinoTickitz" class="s0" aria-label="KinoTickitz"  d="m38.9 58.5l16.8-15.1 39.3 53.8q3.5 4.5 7.1 6.9 3.6 2.2 8.2 2.4v1.5h-12.3q-1.6 0-5.5-0.2-3.8-0.1-8.6-1.1-4.8-1.1-9.7-3.7-4.8-2.7-8.4-7.5-0.8-1-3-4-2.3-3-5.3-7.2-3-4.2-6.3-8.5-3.1-4.5-6-8.5-2.8-3.8-4.6-6.2-1.7-2.6-1.7-2.6zm41.3-54.5l13.2 0.1-45.2 53.5-9.3 0.9zm23.1-1h0.6v1.3h-0.6q-4.9 0-9.3 2.1-4.2 2-7.2 5.3l-12.1-0.3q1.8-2.6 0.6-4.8-1.2-2.3-4.2-2.3h-1.5v-1.3zm-91.7 0h22.5v105h-22.5zm0 94h0.5v11h-12v-1.5q0.1 0 0.9 0 0.9 0 1 0 4 0 6.6-2.7 2.9-2.9 3-6.8zm0.5-94v10.9h-0.5q-0.1-3.9-3-6.6-2.6-2.8-6.6-2.8-0.1 0-1 0-0.8 0-0.9 0v-1.5zm21.6 105v-11h0.4q0.2 3.9 2.9 6.8 2.8 2.7 6.7 2.7 0.2 0 0.9 0 0.9 0 1.1 0v1.5zm0.4-94.1h-0.4v-11h12v1.5q-0.2 0-1.1 0-0.7 0-0.9 0-3.9 0-6.7 2.9-2.7 2.7-2.9 6.6zm88.8 4h21.6v90h-21.6zm0 80.6h0.5v9.5h-11v-1.5q0 0 0.9 0 1 0 1.1 0 3.4 0 6-2.3 2.5-2.4 2.5-5.7zm21.3 9.5v-9.5h0.3q0.2 3.3 2.6 5.7 2.6 2.3 6.1 2.3 0 0 0.8 0 0.9 0 1 0v1.5zm0.3-80.6h-0.3v-9.5h10.8l-0.1 1.5q0 0-0.7 0-0.8 0-1 0-3.5 0-6.1 2.3-2.4 2.2-2.6 5.7zm-21.1-9.5v9.5h-0.4q0-3.5-2.6-5.7-2.5-2.3-6.1-2.3 0 0-0.9 0-1 0-1 0v-1.5zm52.1 14.6l-1.7-16.6 88.1 77.3 1.5 16.7zm-1.5 66.3h0.4v9.2h-11.1v-1.5q0 0 1.3 0 1.1 0 1.1 0 3.5 0 5.9-2.1 2.4-2.3 2.4-5.6zm20.2 0h0.4q0.1 3.3 2.5 5.6 2.4 2.1 5.7 2.1 0 0 1.2 0 1.2 0 1.2 0v1.5h-11zm-21.7-83h1.3l20.8 22.5v69.6h-20.6v-75q0-7.6-0.8-12.3-0.7-4.8-0.7-4.8zm70.2 2.1h20.5v74.4q0 5.3 0.4 9.3 0.4 3.9 0.7 6.2 0.4 2.1 0.4 2.1h-1.3l-20.7-23.9zm20.5 9.2h-0.4v-9.2h11.3l-0.1 1.5q0 0-1.3 0-1.2 0-1.2 0-3.3 0-5.9 2.3-2.4 2.1-2.4 5.4zm-20.2 0h-0.3q-0.2-3.3-2.6-5.4-2.2-2.3-5.7-2.3 0 0-1.3 0-1.2 0-1.2 0v-1.5h11.1zm91-11.1q12 0 21.8 3.3 9.7 3.2 16.8 9.3 7 6.2 10.8 14.9 3.9 8.7 3.9 19.6 0 10.8-3.9 19.5-3.8 8.6-10.8 14.7-7.1 6.2-16.8 9.5-9.8 3.1-21.8 3.1-11.8 0-21.6-3.1-9.7-3.3-16.8-9.5-7-6.1-10.8-14.7-3.7-8.7-3.7-19.5 0-10.9 3.7-19.6 3.8-8.7 10.8-14.9 7.1-6.1 16.8-9.3 9.8-3.3 21.6-3.3zm0 88q9.2 0.1 15.9-4.9 6.9-5.1 10.5-14.2 3.8-9.2 3.8-21.8 0-12.7-3.8-21.9-3.6-9.3-10.5-14.2-6.7-5.1-15.9-5.1-9 0-15.7 5.1-6.8 4.9-10.5 14.2-3.8 9.2-3.8 21.9 0 12.6 3.8 21.8 3.7 9.1 10.5 14.2 6.7 5 15.7 5zm90.5-100.7h22.5v104.6h-22.5zm-36.8-0.6h96v6.3h-96zm79.2 5.8h16.8v17.7l-1.5-0.1v-1.7q0-7-4.2-11.1-4-4.2-11.1-4.3zm16.8-8.6v4.4l-18.3-1.7q3.3 0 6.9-0.4 3.8-0.5 6.9-1.1 3.2-0.6 4.5-1.2zm-59.2 96.9h0.4v11h-12v-1.5q0 0 0.9 0 1.1 0 1.1 0 3.9 0 6.6-2.7 2.8-2.9 3-6.8zm22 11v-11h0.5q0.1 3.9 2.8 6.8 2.9 2.7 6.8 2.7 0 0 0.9 0 1 0 1 0v1.5zm-58.8-99.3h16.7v0.4q-6.9 0.2-11.1 4.4-4.1 4-4.1 11.1v1.6l-1.5 0.2zm0-4.2v-4.4q1.5 0.6 4.5 1.2 3.2 0.6 6.9 1.1 3.8 0.4 6.9 0.4zm113.6 13.5h21.6v90h-21.6zm0 80.6h0.4v9.4h-10.9v-1.5q0 0 0.9 0 0.9 0 1 0 3.5 0 6-2.2 2.6-2.4 2.6-5.7zm21.3 9.4v-9.4h0.3q0.2 3.3 2.5 5.7 2.6 2.2 6.2 2.2 0 0 0.7 0 0.9 0 1.1 0v1.5zm0.3-80.5h-0.3v-9.5h10.8l-0.1 1.5q0 0-0.8 0-0.7 0-0.9 0-3.6 0-6.1 2.3-2.4 2.2-2.6 5.7zm-21.1-9.5v9.5h-0.5q0-3.5-2.5-5.7-2.6-2.3-6.2-2.3 0 0-0.9 0-0.9 0-0.9 0v-1.5zm129.3 52.4h1.2l1.7 22.6q-2.9 4.8-8 8.7-5.1 3.8-12.4 6-7.4 2.3-17.1 2.3-16.8-0.2-29-5.7-12.1-5.6-18.7-15.9-6.5-10.5-6.5-25.5 0-14.7 6.5-25.1 6.4-10.5 18.6-16 12.1-5.7 29.1-5.7 10.2 0 18.9 1.9 8.8 2 14.7 5l0.1 23.8h-1.2q-3.7-13.8-11.8-19.3-8.1-5.6-19.4-5.6-10.8 0-18.1 5.1-7.2 5.1-11 14.3-3.6 9.1-3.6 21.4 0 12.5 3.6 21.6 3.8 9.2 10.8 14.3 7.1 5.1 17 5.4 10.6 0 17.5-3.3 7.1-3.3 11.1-10.7 4.2-7.3 6-19.6zm49.8-4.4l16.1-14.5 33.6 46.5q2.8 4.2 6 6.4 3.1 2.1 7.3 2.3v1.3h-11.5q-1.5 0-5-0.1-3.4-0.2-7.9-1.1-4.4-1-8.9-3.4-4.5-2.4-7.9-6.9-0.8-1.1-2.6-3.6-1.8-2.6-4.3-6-2.4-3.5-5.1-7.1-2.6-3.6-4.8-6.7-2.3-3.2-3.6-5.1-1.4-2-1.4-2zm35.6-47.1h12.3l-39.2 46.2-8.7 0.9zm20.9-1h0.6v1.5h-0.6q-4.2 0-8 1.6-3.7 1.7-6.1 4.5l-11.6-0.3q1.7-2.1 0.6-3.9-1-1.9-3.6-1.9h-1.3v-1.5zm-82.4 0h21.6v90.1h-21.6zm0 80.7h0.3v9.5h-10.2v-1.5q0 0 0.6 0 0.8 0 0.9 0 3.5 0 5.9-2.3 2.4-2.4 2.5-5.7zm21.2 9.5v-9.5h0.4q0 3.3 2.4 5.7 2.4 2.3 5.9 2.3 0.1 0 0.9 0 0.7 0 0.7 0v1.5zm0.5-80.6h-0.5v-9.6h10.4v1.5q-0.2 0-0.9 0-0.6 0-0.8 0-3.4 0-5.8 2.4-2.4 2.3-2.4 5.7zm-21.3-9.6v9.6h-0.3q-0.2-3.4-2.6-5.7-2.4-2.4-5.8-2.4 0 0-0.8 0-0.7 0-0.9 0v-1.5zm101 0.2h21.6v90h-21.6zm0 80.5h0.4v9.5h-10.9v-1.5q0 0 0.9 0 0.9 0 1 0 3.5 0 6-2.3 2.6-2.4 2.6-5.7zm21.3 9.5v-9.5h0.3q0.1 3.3 2.5 5.7 2.6 2.3 6.2 2.3 0 0 0.7 0 0.9 0 1.1 0v1.5zm0.3-80.6h-0.3v-9.5h10.8l-0.2 1.5q0 0-0.7 0-0.8 0-0.9 0-3.6 0-6.2 2.3-2.4 2.2-2.5 5.7zm-21.2-9.5v9.5h-0.4q0-3.5-2.6-5.7-2.5-2.3-6.1-2.3 0 0-0.9 0-0.9 0-0.9 0v-1.5zm70.8 0.5h21.7v89.5h-21.7zm-32.6-0.5h86.9v6h-86.9zm71.7 5.5h15.2v15.9h-1.5v-1.4q0.1-6.4-3.6-10.2-3.6-3.7-10.1-3.8zm15.2-7.8v3.7l-15.8-1.5q2.9 0 6.2-0.3 3.3-0.4 6-0.9 2.7-0.6 3.6-1zm-54.3 82.9h0.3v9.4h-10.1v-1.5q0 0 0.8 0 0.9 0 0.9 0 3.3 0 5.5-2.2 2.4-2.4 2.6-5.7zm21.3 9.4v-9.4h0.4q0 3.3 2.4 5.7 2.4 2.2 5.9 2.2 0 0 0.7 0 0.9 0 0.9 0v1.5zm-53.8-84.6h15.3v0.5q-6.6 0.1-10.2 3.9-3.5 3.7-3.5 10.2v1.3h-1.6zm0-4v-3.8q1.3 0.3 3.9 0.9 2.7 0.6 5.8 1.1 3.3 0.3 6 0.3zm171.6-3.3q0 0 0 0.6 0 0.6 0 0.6l-52.2 90.7h-25.8v-1.2l49.4-82.9h-47.3v-6h60.6q2.9 0 6-0.2 3.3-0.3 5.9-0.7 2.5-0.5 3.4-0.9zm-68.1 86.1h66.6l-1 5.8h-65.6zm72.2-21.7h1.5l-6.5 27.6h-27.1l5.1-5.9q7 0 12.3-2.5 5.2-2.7 8.8-7.5 3.8-5 5.9-11.7zm-80-41.1v-15.9h15.3v0.4q-6.4 0-10.2 3.9-3.6 3.8-3.6 10.4v1.2zm0-20v-3.7q1.2 0.4 3.9 1 2.9 0.5 6.2 0.9 3.4 0.3 6.3 0.3z"/>
</svg>